<?xml version="1.0" encoding="UTF-8"?>
<!-- Uploaded to: ICON Repo, www.iconrepo.com, Generator: ICON Repo Mixer Tools -->
<svg fill="#000000" width="800px" height="800px" version="1.1" viewBox="144 144 512 512" xmlns="http://www.w3.org/2000/svg">
 <path d="m619.98 272.32h-120.79v-53.27c-0.011719-5.9844-2.3906-11.723-6.625-15.953-4.2305-4.2344-9.9688-6.6133-15.953-6.6211h-153.22c-5.9844 0.007813-11.723 2.3867-15.953 6.6211-4.2344 4.2305-6.6133 9.9688-6.6211 15.953v53.27h-120.8c-4.3477 0-7.8711 3.5273-7.8711 7.875v285.66c0.007813 9.9844 3.9805 19.559 11.039 26.621 7.0625 7.0586 16.633 11.031 26.617 11.047h380.39c9.9844-0.015626 19.559-3.9883 26.617-11.047 7.0586-7.0625 11.031-16.637 11.043-26.621v-285.66c0-4.3477-3.5273-7.875-7.875-7.875zm-303.43-53.27c0-3.7734 3.0586-6.832 6.832-6.832h153.22c1.8125 0 3.5508 0.71875 4.832 2 1.2812 1.2852 2 3.0195 2 4.832v53.27h-9.1562v-32.312c-0.003906-4.9414-1.9727-9.6758-5.4648-13.168-3.4961-3.4922-8.2344-5.457-13.176-5.457h-111.29c-4.9414 0-9.6797 1.9648-13.172 5.457-3.4961 3.4922-5.4648 8.2266-5.4688 13.168v32.316l-9.1562-0.003907zm141.99 53.27h-117.09v-32.312c0.011719-1.5938 1.3047-2.8828 2.8984-2.8828h111.29c1.5938 0 2.8906 1.2891 2.8984 2.8828zm153.57 15.742v117.35l-187.64 14.43v-15.121c0-2.0898-0.82812-4.0898-2.3047-5.5664-1.4766-1.4766-3.4805-2.3047-5.5664-2.3047h-33.207c-4.3477 0-7.8711 3.5234-7.8711 7.8711v15.121l-187.64-14.43v-117.35zm-220.84 148.78 8.125 0.62891h1.2109l8.125-0.62891v9.8164h-17.461zm8.7305-15.113-8.7305-0.67578v-8.457h17.461v8.4531zm190.2 166.05h-380.39c-5.8086-0.007813-11.379-2.3203-15.488-6.4297s-6.418-9.6836-6.4258-15.492v-144.65l187.64 14.43v18.895-0.003906c0 2.0898 0.83203 4.0898 2.3047 5.5664 1.4766 1.4766 3.4805 2.3047 5.5664 2.3047h33.207c2.0859 0 4.0898-0.82813 5.5664-2.3047 1.4766-1.4766 2.3047-3.4766 2.3047-5.5664v-18.895l187.64-14.43v144.65c-0.003906 5.8086-2.3164 11.383-6.4258 15.492-4.1055 4.1094-9.6797 6.4219-15.488 6.4297z"/>
</svg>