<?xml version="1.0" encoding="UTF-8"?>
<!-- Uploaded to: ICON Repo, www.iconrepo.com, Generator: ICON Repo Mixer Tools -->
<svg fill="#000000" width="800px" height="800px" version="1.1" viewBox="144 144 512 512" xmlns="http://www.w3.org/2000/svg">
 <path d="m616.99 234.85h-433.99c-17.848 0-32.367 14.52-32.367 32.359v265.57c0 17.848 14.523 32.367 32.367 32.367h433.99c17.848 0 32.367-14.523 32.367-32.367v-265.57c0-17.848-14.523-32.359-32.367-32.359zm-116.28 130.66 128.29-96.648v257.5zm-329.71 160.85v-257.5l128.29 96.645zm15.699-271.16h426.61l-213.31 160.69zm-3.6914 289.59c-0.21484 0-0.41406-0.050781-0.62109-0.066406l133.17-166.97 78.324 59.008c1.8125 1.3672 3.9648 2.0469 6.1211 2.0469s4.3164-0.68359 6.1211-2.0469l78.324-59.008 133.17 166.97c-0.21484 0.015625-0.41406 0.066406-0.625 0.066406z"/>
</svg>