<!DOCTYPE svg PUBLIC "-//W3C//DTD SVG 1.1//EN" "http://www.w3.org/Graphics/SVG/1.1/DTD/svg11.dtd">
<!-- Uploaded to: ICON Repo, www.iconrepo.com, Transformed by: ICON Repo Mixer Tools -->
<svg fill="#ffffff" width="800px" height="800px" version="1.1" viewBox="144 144 512 512" xmlns="http://www.w3.org/2000/svg" stroke="#ffffff">
<g id="SVGRepo_bgCarrier" stroke-width="0"/>
<g id="SVGRepo_tracerCarrier" stroke-linecap="round" stroke-linejoin="round"/>
<g id="SVGRepo_iconCarrier"> <path d="m367.3 184.93c3.8711 4.4062 4.9727 10.602 2.8555 16.074-8.168 21.137-12.648 44.066-12.648 68.059 0 105.78 87.387 192.01 195.79 192.01 16.445 0 32.398-1.9844 47.629-5.7148 5.6953-1.3984 11.699 0.48828 15.57 4.8945 3.875 4.4062 4.9766 10.602 2.8594 16.074-32.605 84.336-115.54 144.09-212.5 144.09-125.25 0-227.27-99.797-227.27-223.5 0-104.94 73.449-192.69 172.15-216.88 5.6992-1.3984 11.699 0.48828 15.574 4.8945zm-35.688 34.652c-70.91 28.965-120.55 97.586-120.55 177.33 0 105.78 87.387 192.01 195.78 192.01 73.227 0 136.95-39.398 170.53-97.602-7.918 0.82031-15.953 1.2383-24.082 1.2383-125.25 0-227.27-99.797-227.27-223.5 0-16.992 1.9336-33.555 5.5938-49.48z" fill-rule="evenodd"/> </g>
</svg>