<!DOCTYPE svg PUBLIC "-//W3C//DTD SVG 1.1//EN" "http://www.w3.org/Graphics/SVG/1.1/DTD/svg11.dtd">
<!-- Uploaded to: ICON Repo, www.iconrepo.com, Transformed by: ICON Repo Mixer Tools -->
<svg fill="#ffffff" width="800px" height="800px" version="1.1" viewBox="144 144 512 512" xmlns="http://www.w3.org/2000/svg" stroke="#ffffff">
<g id="SVGRepo_bgCarrier" stroke-width="0"/>
<g id="SVGRepo_tracerCarrier" stroke-linecap="round" stroke-linejoin="round"/>
<g id="SVGRepo_iconCarrier"> <g> <path d="m562.62 639.86h-325.18c-16.074 0-29.148-13.043-29.148-29.082v-421.49c0-16.078 13.074-29.156 29.148-29.156h325.18c16.043 0 29.09 13.078 29.09 29.156v421.49c0 16.039-13.047 29.082-29.086 29.082zm-325.18-474.17c-13.008 0-23.594 10.582-23.594 23.598v421.49c0 12.973 10.586 23.527 23.594 23.527h325.18c12.973 0 23.527-10.551 23.527-23.527l0.003907-421.49c0-13.016-10.555-23.598-23.527-23.598z"/> <path d="m321.01 353.15c-21.293 0-41.719-9.0469-56.031-24.82-12.633-13.84-19.594-31.852-19.594-50.719 0-20.086 7.8711-39.066 22.16-53.449 14.34-14.254 33.32-22.094 53.461-22.094 20.113 0 39.121 7.8398 53.527 22.074 14.254 14.34 22.098 33.324 22.098 53.469 0 18.875-6.9609 36.891-19.594 50.727-0.67187 0.83594-1.5469 1.793-2.5039 2.7383-14.309 14.23-33.324 22.074-53.523 22.074zm0-145.53c-18.66 0-36.258 7.2695-49.531 20.465-13.242 13.324-20.535 30.914-20.535 49.523 0 17.477 6.4453 34.156 18.145 46.98 13.27 14.621 32.191 23.004 51.922 23.004 18.727 0 36.344-7.2695 49.613-20.465 0.81641-0.80469 1.5469-1.6094 2.207-2.418 11.801-12.934 18.246-29.617 18.246-47.102 0-18.668-7.2656-36.262-20.461-49.535-13.344-13.184-30.969-20.453-49.605-20.453z"/> <path d="m321.03 299.11c-20.738 0-37.609-16.867-37.609-37.605s16.871-37.609 37.609-37.609c20.73 0 37.586 16.871 37.586 37.609 0.003906 20.738-16.855 37.605-37.586 37.605zm0-69.656c-17.676 0-32.051 14.379-32.051 32.051s14.375 32.051 32.051 32.051c17.66 0 32.031-14.375 32.031-32.051 0-17.672-14.367-32.051-32.031-32.051z"/> <path d="m321.01 353.15c-21.285 0-41.711-9.0469-56.031-24.82-0.46484-0.51172-0.72266-1.1758-0.72266-1.8672v-1.1992c0-17.496 14.27-31.727 31.805-31.727h49.973c17.496 0 31.727 14.23 31.727 31.727v1.1992c0 0.63672-0.21875 1.2539-0.62109 1.75-0.77344 0.95312-1.6406 1.8984-2.5898 2.8555-14.324 14.242-33.34 22.082-53.539 22.082zm-51.199-27.773c13.234 14.129 31.828 22.215 51.195 22.215 18.727 0 36.344-7.2695 49.613-20.461 0.5625-0.5625 1.0938-1.1211 1.5859-1.6836v-0.18359c0-14.43-11.742-26.172-26.172-26.172h-49.973c-14.469 0-26.25 11.738-26.25 26.172zm105.17 1.0859h0.074219z"/> <path d="m551.8 216.58h-121.41c-1.5352 0-2.7773-1.2461-2.7773-2.7773 0-1.5352 1.2461-2.7773 2.7773-2.7773h121.41c1.5352 0 2.7773 1.2461 2.7773 2.7773 0 1.5352-1.2461 2.7773-2.7812 2.7773z"/> <path d="m551.8 249.79h-121.41c-1.5352 0-2.7773-1.2461-2.7773-2.7773 0-1.5352 1.2461-2.7773 2.7773-2.7773h121.41c1.5352 0 2.7773 1.2461 2.7773 2.7773 0 1.5352-1.2461 2.7773-2.7812 2.7773z"/> <path d="m551.8 282.98h-121.41c-1.5352 0-2.7773-1.2461-2.7773-2.7773 0-1.5352 1.2461-2.7773 2.7773-2.7773h121.41c1.5352 0 2.7773 1.2461 2.7773 2.7773 0 1.5352-1.2461 2.7773-2.7812 2.7773z"/> <path d="m551.8 316.18h-121.41c-1.5352 0-2.7773-1.2461-2.7773-2.7773 0-1.5352 1.2461-2.7773 2.7773-2.7773h121.41c1.5352 0 2.7773 1.2461 2.7773 2.7773 0 1.5352-1.2461 2.7773-2.7812 2.7773z"/> <path d="m551.8 349.38h-121.41c-1.5352 0-2.7773-1.2461-2.7773-2.7773 0-1.5352 1.2461-2.7773 2.7773-2.7773h121.41c1.5352 0 2.7773 1.2461 2.7773 2.7773 0 1.5352-1.2461 2.7773-2.7812 2.7773z"/> <path d="m544.7 432.23h-289.46c-5.4102 0-9.8164-4.4336-9.8164-9.8906v-31.785c0-5.4141 4.4062-9.8164 9.8164-9.8164h289.46c5.457 0 9.8984 4.4023 9.8984 9.8164v31.785c0 5.457-4.4414 9.8906-9.8984 9.8906zm-289.46-45.938c-2.3516 0-4.2617 1.9102-4.2617 4.2617v31.785c0 2.4297 1.875 4.332 4.2617 4.332l289.46 0.003906c2.3945 0 4.3398-1.9414 4.3398-4.332v-31.785c0-2.3516-1.9453-4.2617-4.3398-4.2617z"/> <path d="m544.7 515.08h-289.46c-5.4102 0-9.8164-4.4336-9.8164-9.8906v-31.785c0-5.4141 4.4062-9.8164 9.8164-9.8164h289.46c5.457 0 9.8984 4.4023 9.8984 9.8164v31.785c0 5.457-4.4414 9.8906-9.8984 9.8906zm-289.46-45.934c-2.3516 0-4.2617 1.9102-4.2617 4.2617v31.785c0 2.4297 1.875 4.332 4.2617 4.332h289.46c2.3945 0 4.3398-1.9414 4.3398-4.332v-31.785c0-2.3516-1.9453-4.2617-4.3398-4.2617z"/> <path d="m544.7 597.93h-289.46c-5.4102 0-9.8164-4.4336-9.8164-9.8906v-31.785c0-5.4141 4.4062-9.8164 9.8164-9.8164l289.46-0.003906c5.457 0 9.8984 4.4023 9.8984 9.8164v31.785c0 5.457-4.4414 9.8945-9.8984 9.8945zm-289.46-45.938c-2.3516 0-4.2617 1.9102-4.2617 4.2617v31.785c0 2.4297 1.875 4.332 4.2617 4.332h289.46c2.3945 0 4.3398-1.9414 4.3398-4.332v-31.785c0-2.3516-1.9453-4.2617-4.3398-4.2617z"/> </g> </g>
</svg>