<?xml version="1.0" encoding="UTF-8"?>
<!-- Uploaded to: ICON Repo, www.iconrepo.com, Generator: ICON Repo Mixer Tools -->
<svg fill="#000000" width="800px" height="800px" version="1.1" viewBox="144 144 512 512" xmlns="http://www.w3.org/2000/svg">
 <path d="m400 279.31c-66.551 0-120.69 54.141-120.69 120.69-0.003906 66.551 54.137 120.69 120.69 120.69s120.69-54.141 120.69-120.69c0-66.551-54.141-120.69-120.69-120.69zm0 215.03c-52.02 0-94.34-42.32-94.34-94.34-0.003906-52.023 42.316-94.344 94.34-94.344 52.02 0 94.34 42.32 94.34 94.344 0 52.02-42.32 94.34-94.34 94.34zm-13.176-259.74v-40.449c0-7.2734 5.8984-13.176 13.176-13.176 7.2734 0 13.176 5.8984 13.176 13.176v40.449c0 7.2734-5.8984 13.176-13.176 13.176s-13.176-5.8984-13.176-13.176zm-101.16-6.2852c-3.6406-6.3047-1.4805-14.359 4.8203-18 6.3047-3.6328 14.359-1.4805 18 4.8203l20.223 35.031c3.6406 6.3047 1.4805 14.359-4.8203 18-2.0781 1.1992-4.3398 1.7695-6.5742 1.7695-4.5547 0-8.9805-2.3633-11.422-6.5898zm-17.492 95.57c-2.4414 4.2266-6.8672 6.5898-11.422 6.5898-2.2344 0-4.5-0.57031-6.5742-1.7695l-35.031-20.223c-6.3047-3.6406-8.4609-11.695-4.8203-18s11.695-8.457 18-4.8203l35.031 20.223c6.2969 3.6406 8.4531 11.699 4.8164 18zm-33.57 89.289h-40.449c-7.2734 0-13.176-5.8984-13.176-13.176 0-7.2812 5.8984-13.176 13.176-13.176h40.449c7.2734 0 13.176 5.8984 13.176 13.176s-5.8984 13.176-13.176 13.176zm33.57 62.934c3.6406 6.3047 1.4805 14.359-4.8203 18l-35.031 20.223c-2.0781 1.1992-4.3398 1.7695-6.5742 1.7695-4.5547 0-8.9805-2.3633-11.422-6.5898-3.6406-6.3047-1.4805-14.359 4.8203-18l35.031-20.223c6.2969-3.6367 14.355-1.4805 17.996 4.8203zm60.539 73.715-20.223 35.031c-2.4414 4.2266-6.8672 6.5898-11.422 6.5898-2.2344 0-4.5-0.57031-6.5742-1.7695-6.3047-3.6406-8.4609-11.695-4.8203-18l20.223-35.031c3.6406-6.3047 11.695-8.4609 18-4.8203 6.2969 3.6406 8.4531 11.699 4.8164 18zm84.465 15.574v40.449c0 7.2734-5.8984 13.176-13.176 13.176-7.2734 0-13.176-5.8984-13.176-13.176v-40.449c0-7.2734 5.8984-13.176 13.176-13.176 7.2734 0 13.176 5.8945 13.176 13.176zm101.16 6.2812c3.6406 6.3047 1.4805 14.359-4.8203 18-2.0781 1.1992-4.3398 1.7695-6.5742 1.7695-4.5547 0-8.9805-2.3633-11.422-6.5898l-20.223-35.031c-3.6406-6.3047-1.4805-14.359 4.8203-18 6.2969-3.6328 14.359-1.4805 18 4.8203zm75.344-62.168c-2.4414 4.2266-6.8672 6.5898-11.422 6.5898-2.2344 0-4.5-0.57031-6.5742-1.7695l-35.031-20.223c-6.3047-3.6406-8.4609-11.695-4.8203-18s11.695-8.4609 18-4.8203l35.031 20.223c6.293 3.6406 8.4531 11.695 4.8164 18zm29.348-109.51c0 7.2734-5.8984 13.176-13.176 13.176h-40.453c-7.2734 0-13.176-5.8984-13.176-13.176 0-7.2812 5.8984-13.176 13.176-13.176h40.453c7.2734 0 13.176 5.8984 13.176 13.176zm-87.195-76.113c-3.6406-6.3047-1.4805-14.359 4.8203-18l35.031-20.223c6.3047-3.6328 14.359-1.4805 18 4.8203 3.6406 6.3047 1.4805 14.359-4.8203 18l-35.031 20.223c-2.0781 1.1992-4.3398 1.7695-6.5742 1.7695-4.5586 0-8.9844-2.3633-11.426-6.5898zm-60.539-73.715 20.223-35.031c3.6406-6.3047 11.695-8.4609 18-4.8203 6.3047 3.6406 8.4609 11.695 4.8203 18l-20.223 35.031c-2.4414 4.2266-6.8672 6.5898-11.422 6.5898-2.2344 0-4.5-0.57031-6.5742-1.7695-6.3047-3.6406-8.4648-11.699-4.8242-18z"/>
</svg>