<?xml version="1.0" encoding="UTF-8"?>
<!-- Uploaded to: ICON Repo, www.iconrepo.com, Generator: ICON Repo Mixer Tools -->
<svg fill="#000000" width="800px" height="800px" version="1.1" viewBox="144 144 512 512" xmlns="http://www.w3.org/2000/svg">
 <g>
  <path d="m602.47 533.04-114.14-186.88c-5.7148-9.5039-8.7109-20.395-8.6602-31.488v-88.793h6.6133c4.7578 0 9.3242-1.8945 12.691-5.2578 3.3633-3.3672 5.2539-7.9336 5.2539-12.691v-10.551c0-4.7461-1.8945-9.293-5.2656-12.633-3.3711-3.3438-7.9336-5.1992-12.68-5.1562h-173.19c-4.6211 0.125-9.0078 2.0586-12.219 5.3867-3.2109 3.3242-4.9844 7.7812-4.9414 12.402v10.551c-0.042969 4.7461 1.8164 9.3125 5.1562 12.68 3.3398 3.3711 7.8906 5.2695 12.637 5.2695h6.6133v88.953h-0.003907c-0.003906 11.102-3.0547 21.992-8.8164 31.488l-113.98 186.72c-7.1797 11.648-9.957 25.48-7.8242 38.996 2.1289 13.516 9.0273 25.824 19.441 34.699 10.414 8.875 23.664 13.727 37.344 13.684h306.85c13.676 0.015626 26.906-4.8477 37.316-13.715 10.41-8.8672 17.316-21.152 19.48-34.656 2.1641-13.5-0.55469-27.332-7.6719-39.008zm-288.75-320.55c-2.4883-0.082031-4.4844-2.082-4.5664-4.5664v-10.551c0-2.5195 2.043-4.5625 4.5664-4.5625h173.18c2.4883 0.078125 4.4844 2.0781 4.5664 4.5625v10.551c-0.082031 2.4844-2.0781 4.4844-4.5664 4.5664zm9.1289 140.28c7.0977-11.5 10.859-24.746 10.863-38.258v-87.695h132.57v88.484c0.09375 13.23 3.7969 26.184 10.707 37.469l48.961 80.297c-11.965 6.3633-25.426 9.4023-38.965 8.793-13.543-0.60938-26.676-4.8438-38.023-12.258-14.516-9.5469-31.508-14.637-48.883-14.637s-34.371 5.0898-48.887 14.637c-11.363 7.4453-24.523 11.695-38.098 12.305s-27.059-2.4453-39.047-8.8398zm268.91 231.44c-3.7695 6.8867-9.3281 12.629-16.09 16.621-6.7617 3.9883-14.477 6.0781-22.328 6.0508h-306.85c-10.398-0.10547-20.43-3.875-28.328-10.641-7.8984-6.7695-13.16-16.105-14.863-26.367-1.6992-10.262 0.26953-20.793 5.5664-29.746l58.41-95.566c14.203 7.6758 30.223 11.367 46.355 10.672 16.133-0.69141 31.777-5.7422 45.273-14.609 12.211-8.0039 26.492-12.27 41.094-12.27 14.598 0 28.879 4.2656 41.09 12.27 14.395 9.8711 31.516 14.992 48.965 14.645 14.898 0.097656 29.578-3.5859 42.668-10.707l58.254 95.566h-0.003906c4.1797 6.6211 6.4609 14.262 6.5977 22.09 0.14063 7.8281-1.8711 15.543-5.8086 22.309z"/>
  <path d="m286.17 498.08c-1.7383-0.039062-3.4219 0.62109-4.6641 1.8359-1.2461 1.2148-1.9492 2.8828-1.9492 4.6211-0.039063 1.7812 0.63672 3.5039 1.8828 4.7773 1.2422 1.2734 2.9492 1.9922 4.7305 1.9922 3.6523 0 6.6133-2.9609 6.6133-6.6133 0-3.6523-2.9609-6.6133-6.6133-6.6133z"/>
  <path d="m326.32 551.46c-1.7812 0-3.4883 0.71875-4.7305 1.9922-1.2461 1.2734-1.9258 2.9961-1.8828 4.7773 0 1.7383 0.70312 3.4062 1.9453 4.6211 1.2461 1.2148 2.9297 1.875 4.668 1.832 1.7383 0.042968 3.4219-0.61719 4.668-1.832 1.2422-1.2148 1.9453-2.8828 1.9453-4.6211 0.042968-1.7812-0.63672-3.5039-1.8828-4.7773-1.2422-1.2734-2.9492-1.9922-4.7305-1.9922z"/>
  <path d="m246.02 538.07c-3.3047 0.50781-5.7422 3.3477-5.7422 6.6914 0 3.3398 2.4375 6.1836 5.7422 6.6914 1.9492 0.30078 3.9375-0.26953 5.4375-1.5547 1.4961-1.2852 2.3594-3.1602 2.3594-5.1367s-0.86328-3.8516-2.3594-5.1406c-1.5-1.2852-3.4883-1.8516-5.4375-1.5508z"/>
  <path d="m346.31 518.08c-2.7656-0.0625-5.293 1.5625-6.3828 4.1055-1.0859 2.543-0.51563 5.4961 1.4375 7.4492 1.957 1.957 4.9062 2.5273 7.4492 1.4375 2.5469-1.0859 4.1719-3.6133 4.1055-6.3789 0-1.7539-0.69531-3.4375-1.9336-4.6758-1.2422-1.2383-2.9219-1.9375-4.6758-1.9375z"/>
  <path d="m406.45 478.72c-2.6875 0-5.1094 1.6289-6.1211 4.1211-1.0156 2.4883-0.41797 5.3438 1.5039 7.2227 1.9258 1.8789 4.793 2.4062 7.2578 1.332s4.0352-3.5312 3.9727-6.2227c-0.085937-3.5898-3.0195-6.4531-6.6133-6.4531z"/>
  <path d="m486.59 498.08c-3.6523 0-6.6133 2.9609-6.6133 6.6133 0 3.6523 2.9609 6.6133 6.6133 6.6133s6.6133-2.9609 6.6133-6.6133c0-3.6523-2.9609-6.6133-6.6133-6.6133z"/>
  <path d="m459.82 578.22c0 3.7383-2.957 6.7695-6.6094 6.7695s-6.6133-3.0312-6.6133-6.7695c0-3.7422 2.9609-6.7695 6.6133-6.7695s6.6094 3.0273 6.6094 6.7695"/>
  <path d="m540.12 558.23c-1.7539-0.042968-3.4531 0.61328-4.7227 1.8242-1.2695 1.2109-2.0078 2.875-2.0469 4.6289-0.30078 1.9531 0.26563 3.9414 1.5508 5.4375 1.2891 1.5 3.1641 2.3633 5.1406 2.3633 1.9727 0 3.8516-0.86328 5.1367-2.3633 1.2852-1.4961 1.8555-3.4844 1.5547-5.4375 0-1.7383-0.70312-3.4023-1.9492-4.6211-1.2422-1.2148-2.9258-1.875-4.6641-1.832z"/>
  <path d="m560.12 571.45c-1.7812-0.003906-3.4883 0.71484-4.7344 1.9883-1.2461 1.2773-1.9219 3-1.8789 4.7812-0.30078 1.9492 0.26562 3.9375 1.5508 5.4375 1.2891 1.4961 3.1641 2.3594 5.1406 2.3594 1.9727 0 3.8516-0.86328 5.1367-2.3594 1.2852-1.5 1.8555-3.4883 1.5547-5.4375 0-3.7422-3.0312-6.7695-6.7695-6.7695z"/>
 </g>
</svg>