<!DOCTYPE svg PUBLIC "-//W3C//DTD SVG 1.1//EN" "http://www.w3.org/Graphics/SVG/1.1/DTD/svg11.dtd">
<!-- Uploaded to: ICON Repo, www.iconrepo.com, Transformed by: ICON Repo Mixer Tools -->
<svg width="800px" height="800px" version="1.1" viewBox="144 144 512 512" xmlns="http://www.w3.org/2000/svg" fill="#0091eb" stroke="#0091eb">
<g id="SVGRepo_bgCarrier" stroke-width="0"/>
<g id="SVGRepo_tracerCarrier" stroke-linecap="round" stroke-linejoin="round"/>
<g id="SVGRepo_iconCarrier"> <defs> <clipPath id="a"> <path d="m159 148.09h482v503.81h-482z"/> </clipPath> </defs> <g clip-path="url(#a)"> <path d="m620.62 436.95c-7.7852-10.746-11.977-23.676-11.977-36.945s4.1914-26.203 11.977-36.949l15.953-22.043v0.003907c3.957-5.4609 5.0508-12.488 2.9414-18.895-2.1328-6.332-7.1055-11.301-13.438-13.434l-25.82-8.3984c-12.648-4.0781-23.672-12.074-31.484-22.824-7.8086-10.754-12-23.711-11.969-37.004v-27.289c-0.003906-6.7188-3.2266-13.031-8.668-16.977-5.4414-3.9453-12.441-5.0469-18.832-2.9648l-26.031 8.3984h0.003906c-12.641 4.0859-26.246 4.0781-38.875-0.03125-12.633-4.1094-23.641-12.109-31.449-22.852l-15.953-22.043c-4.1289-5.1719-10.387-8.1875-17.004-8.1875-6.6211 0-12.879 3.0156-17.004 8.1875l-15.953 22.043h-0.003907c-7.8086 10.742-18.816 18.742-31.449 22.852-12.629 4.1094-26.234 4.1172-38.871 0.03125l-26.031-8.3984c-6.3906-2.082-13.391-0.98047-18.832 2.9648-5.4414 3.9453-8.6641 10.258-8.668 16.977v27.289c0.03125 13.293-4.1602 26.25-11.969 37.004-7.8125 10.75-18.836 18.746-31.484 22.824l-25.82 8.3984c-6.332 2.1328-11.305 7.1016-13.434 13.434-2.1133 6.4062-1.0195 13.434 2.9375 18.895l15.953 22.043v-0.003907c7.7852 10.746 11.977 23.68 11.977 36.949s-4.1914 26.199-11.977 36.945l-15.953 22.039c-3.957 5.4609-5.0508 12.492-2.9375 18.895 2.1289 6.332 7.1016 11.305 13.434 13.434l25.82 8.3984c12.648 4.0781 23.672 12.074 31.484 22.828 7.8086 10.75 12 23.707 11.969 37v27.289c0.003906 6.7188 3.2266 13.031 8.668 16.977 5.4414 3.9453 12.441 5.0508 18.832 2.9648l25.82-8.3984v0.003906c12.664-4.1602 26.32-4.1836 39-0.070312 12.68 4.1133 23.723 12.148 31.531 22.949l15.953 22.043h0.003906c3.9727 5.4102 10.289 8.6094 17.004 8.6094s13.027-3.1992 17.004-8.6094l15.953-22.043c7.8242-10.785 18.867-18.809 31.539-22.922 12.676-4.1094 26.328-4.0977 38.992 0.042969l25.82 8.3984v-0.003907c6.3906 2.0859 13.391 0.98047 18.832-2.9648 5.4414-3.9453 8.6641-10.258 8.668-16.977v-27.289c-0.03125-13.293 4.1602-26.25 11.969-37 7.8125-10.754 18.836-18.75 31.484-22.828l25.82-8.3984c6.332-2.1289 11.305-7.1016 13.438-13.434 2.1094-6.4023 1.0156-13.434-2.9414-18.895zm-121.75-64.09-104.96 104.96c-3.9375 3.9336-9.2734 6.1445-14.84 6.1445-5.5664 0-10.906-2.2109-14.844-6.1445l-62.977-62.977c-4.0469-3.9102-6.3555-9.2852-6.4062-14.918-0.046875-5.6289 2.168-11.043 6.1484-15.023 3.9805-3.9844 9.3945-6.1992 15.027-6.1484 5.6289 0.046875 11.004 2.3555 14.914 6.4062l48.074 48.137 90.117-90.117v-0.003906c5.332-5.1484 12.984-7.1055 20.133-5.1445 7.1523 1.9609 12.734 7.5469 14.695 14.695 1.9609 7.1484 0.003906 14.801-5.1445 20.133z"/> </g> </g>
</svg>